<?xml version="1.0" encoding="utf-8"?>
<!-- Generator: Adobe Illustrator 23.0.6, SVG Export Plug-In . SVG Version: 6.00 Build 0)  -->
<svg version="1.1" id="Layer_1" xmlns="http://www.w3.org/2000/svg" xmlns:xlink="http://www.w3.org/1999/xlink" x="0px" y="0px"
	 viewBox="0 0 500 500" style="enable-background:new 0 0 500 500;" xml:space="preserve">
<style type="text/css">
	.st0{fill:#0072FF;}
</style>
<path class="st0" d="M-9.5,37.5c0,0,25,86,162,90s110-60,204-55s170,66,170,66v-226l-567,40L-9.5,37.5z"/>
<path class="st0" d="M-11,95c0,0,75,77,144,76s159-36,222-32s172,44,172,44v200c0,0-76,56-166,51s-175-85-246-90s-161,61-161,61
	L-11,95z"/>
<path class="st0" d="M-40,434c0,0,91-55,151-51s212,81,260,78s149-33,149-33v50c0,0-76,13-147,11s-197-22-254-20s-140,8-140,8
	L-40,434z"/>
</svg>
