<svg xmlns="http://www.w3.org/2000/svg" width="139.285" height="100.001" viewBox="0 0 139.285 100.001">
  <path id="联合_3" data-name="联合 3" d="M7982.977-8938.835a29.079,29.079,0,0,1-9.472-7.842,37.847,37.847,0,0,1-6.248-11.84,47.027,47.027,0,0,1-2.256-14.826,40.408,40.408,0,0,1,2.2-13.659,37.3,37.3,0,0,1,3.8-7.967c1.567-2.358,2.393-1.957,4.542-.755.7.882.24,2.034-.415,2.95a29.423,29.423,0,0,0-3.715,7.643,38.447,38.447,0,0,0-1.653,12.03,33.9,33.9,0,0,0,2.411,12.053,28.636,28.636,0,0,0,5.433,9.361,23.836,23.836,0,0,0,7.924,5.921,22.455,22.455,0,0,0,9.5,2.075,22.427,22.427,0,0,0,9.5-2.075,23.434,23.434,0,0,0,7.887-5.921,29.062,29.062,0,0,0,5.393-9.361,35.988,35.988,0,0,0,2.011-12.4,55.027,55.027,0,0,0-1.047-11.132,37.188,37.188,0,0,0-1.948-6.646,2.562,2.562,0,0,0-2.383-1.549h-13.083a2.558,2.558,0,0,0-2.579,2.539v11.618a2.56,2.56,0,0,1-2.578,2.54,2.56,2.56,0,0,1-2.579-2.54l-1.055-22.431c-.744-7.233-1.487-10.892-1.322-14.146a26.736,26.736,0,0,1,.991-6.869,21.057,21.057,0,0,1,3.574-7.087c1.644-2.227,3.787-3.4,6.322-4.78a18.607,18.607,0,0,1,9.044-2.075,18.69,18.69,0,0,1,8.325,1.672,12.088,12.088,0,0,1,4.917,3.894,29.209,29.209,0,0,1,3.66,6.141c.959,2.295,1.685,4.046,2.44,6.409.753,2.292,1.415,4.808,2.168,6.9a23.746,23.746,0,0,0,2.828,5.567,14.209,14.209,0,0,0,4.229,4.182c1.678.976,4.366,2.311,6.9,2.311a15.447,15.447,0,0,0,6.806-2.052c1.748-.978,3.143-2.885,4.343-4.4a15.59,15.59,0,0,0,2.673-5.113,18.807,18.807,0,0,0,.873-5.567,18.244,18.244,0,0,0-2.622-9.869,19.848,19.848,0,0,0-3.437-3.978,1.3,1.3,0,0,1,.365-2.159l3.5-1.53a2.721,2.721,0,0,1,3.333.927,25.07,25.07,0,0,1,2.055,3.667,29.2,29.2,0,0,1,2,6.176,32.013,32.013,0,0,1,.667,6.479,29.851,29.851,0,0,1-1.234,8.454,21.93,21.93,0,0,1-3.8,7.468,19.7,19.7,0,0,1-6.524,5.315,20.244,20.244,0,0,1-9.407,2.046,18.776,18.776,0,0,1-8.994-1.919,18.077,18.077,0,0,1-5.857-4.945,26.9,26.9,0,0,1-3.751-6.817q-1.439-3.785-2.674-7.518-1.027-3.031-2.054-5.806a20.082,20.082,0,0,0-2.622-4.948,12.569,12.569,0,0,0-3.853-3.482,11.368,11.368,0,0,0-5.755-1.312,12.758,12.758,0,0,0-6.064,1.365,12.893,12.893,0,0,0-4.266,3.595,10.674,10.674,0,0,0-2,4.345c-1.068,3.948-.583,11.579-.583,11.579.1.894.691,7.017.742,7.643.111,1.319,1.2,1.27,2.546,1.268l16.666-.034a2.579,2.579,0,0,1,2.377,1.5,54.238,54.238,0,0,1,3.506,11.142,70.669,70.669,0,0,1,1.374,14.064,47.806,47.806,0,0,1-2.259,14.978,37.05,37.05,0,0,1-6.245,11.84,28.737,28.737,0,0,1-9.472,7.74,26.125,26.125,0,0,1-12.01,2.785A25.759,25.759,0,0,1,7982.977-8938.835Zm109.341-11.411h2.442c.109,1.3,1.254,2.408,3.376,2.408,1.946,0,3.1-.912,3.1-2.329,0-1.146-.771-1.76-2.375-2.147l-2.465-.614c-1.935-.451-3.671-1.605-3.671-4.046,0-2.871,2.506-4.442,5.422-4.442s5.343,1.571,5.4,4.377h-2.4c-.109-1.277-1.089-2.334-3.034-2.334-1.717,0-2.882.816-2.882,2.211,0,.979.683,1.683,2.079,2l2.452.605c2.254.549,3.971,1.614,3.971,4.168,0,2.945-2.388,4.605-5.785,4.605C8093.77-8945.781,8092.373-8948.222,8092.318-8950.246Zm-13.954-.869v-9.973h2.474v9.633a3.226,3.226,0,0,0,3.42,3.52,3.229,3.229,0,0,0,3.408-3.52v-9.633h2.485v9.973c0,3.146-2.222,5.334-5.894,5.334S8078.365-8947.97,8078.365-8951.115Zm-47.824-1.517v-2.1c0-4.068,2.277-6.654,6.191-6.654,3.477,0,5.631,2.146,5.785,4.994h-2.442a3.114,3.114,0,0,0-3.354-2.86c-2.332,0-3.683,1.672-3.683,4.531v2.077c0,2.926,1.22,4.729,3.76,4.729,2.036,0,3.365-1.263,3.365-2.978v-1.18h-3.454v-1.966h5.839v3.032c0,2.882-2.209,5.225-5.783,5.225C8032.609-8945.781,8030.541-8948.432,8030.541-8952.632Zm42.116,6.554v-15.01h2.5v15.01Zm-5.551,0-7.116-10.808h-.066v10.808h-2.354v-15.01h2.2l7.093,10.775h.077v-10.775h2.343v15.01Zm-21.786,0v-15.01h9.37v2.1H8047.8v4.279h6.488v2.012H8047.8v4.52h6.885v2.1Zm32.619-27.619v-2.057c0-4.266,2.429-6.84,6.257-6.84,3.848,0,6.234,2.586,6.234,6.84v2.057c0,4.243-2.417,6.708-6.257,6.708S8077.938-8969.454,8077.938-8973.7Zm2.517-2.079v2.079c0,3.111,1.594,4.586,3.728,4.586s3.717-1.475,3.717-4.586v-2.079c0-3.1-1.583-4.683-3.717-4.683S8080.456-8978.877,8080.456-8975.776Zm-49.165,4.322h2.44c.111,1.3,1.254,2.408,3.376,2.408,1.946,0,3.1-.911,3.1-2.331,0-1.143-.769-1.76-2.375-2.144l-2.463-.616c-1.937-.449-3.673-1.605-3.673-4.046,0-2.871,2.508-4.442,5.422-4.442s5.345,1.571,5.4,4.377h-2.4c-.111-1.277-1.091-2.331-3.037-2.331-1.714,0-2.88.812-2.88,2.208,0,.98.68,1.683,2.077,2l2.454.6c2.254.551,3.968,1.616,3.968,4.168,0,2.947-2.386,4.607-5.783,4.607C8032.743-8966.989,8031.346-8969.429,8031.291-8971.454Zm70.189,4.168-2.692-5.773h-3.114v5.773H8093.2v-15.01h5.74c3.465,0,5.06,2.111,5.06,4.619a4.272,4.272,0,0,1-2.751,4.2l3.037,6.19Zm-5.806-7.751h2.86c1.857,0,2.9-.9,2.9-2.554a2.523,2.523,0,0,0-2.837-2.66h-2.925Zm-23.015,7.751v-15.01h2.495v15.01Zm-5.554,0-7.114-10.811h-.066v10.811h-2.354v-15.01h2.2l7.094,10.776h.075V-8982.3h2.343v15.01Zm-21.784,0v-15.01h9.37v2.1h-6.885v4.279h6.488v2.012h-6.488v4.52h6.885v2.1Z" transform="translate(-7965 9036.002)" fill="#2b5de5"/>
</svg>
