<svg xmlns="http://www.w3.org/2000/svg" width="170" height="122.051" viewBox="0 0 170 122.051">
  <g id="组_19" data-name="组 19" transform="translate(-192.526 -136.627)">
    <g id="组_2" data-name="组 2" transform="translate(192.526 136.627)">
      <path id="路径_1" data-name="路径 1" d="M168.878,248.653a3.124,3.124,0,0,0,3.147,3.1h0a3.124,3.124,0,0,0,3.148-3.1V234.475a3.124,3.124,0,0,1,3.148-3.1h15.968a3.129,3.129,0,0,1,2.909,1.891,45.567,45.567,0,0,1,2.376,8.113,67.074,67.074,0,0,1,1.28,13.586,43.905,43.905,0,0,1-2.456,15.129,35.48,35.48,0,0,1-6.581,11.425,28.616,28.616,0,0,1-9.626,7.226,27.79,27.79,0,0,1-23.182,0,29.124,29.124,0,0,1-9.673-7.226,34.968,34.968,0,0,1-6.631-11.425,41.392,41.392,0,0,1-2.941-14.71,46.9,46.9,0,0,1,2.016-14.685,35.932,35.932,0,0,1,4.534-9.328c.8-1.119,1.365-2.524.508-3.6h0c-2.625-1.466-3.631-1.956-5.546.922a45.549,45.549,0,0,0-4.634,9.724,49.317,49.317,0,0,0-2.689,16.671,57.356,57.356,0,0,0,2.754,18.094,46.225,46.225,0,0,0,7.625,14.452,35.54,35.54,0,0,0,11.561,9.573,31.446,31.446,0,0,0,14.658,3.458,31.878,31.878,0,0,0,14.659-3.4,35.1,35.1,0,0,0,11.561-9.449,45.21,45.21,0,0,0,7.623-14.45,58.35,58.35,0,0,0,2.756-18.28,86.159,86.159,0,0,0-1.677-17.167,65.994,65.994,0,0,0-4.278-13.6,3.151,3.151,0,0,0-2.9-1.836l-20.341.042c-1.642,0-2.972.064-3.106-1.547-.062-.764-.791-8.236-.907-9.328,0,0-.59-9.312.713-14.132a13.008,13.008,0,0,1,2.44-5.3,15.74,15.74,0,0,1,5.206-4.387,15.559,15.559,0,0,1,7.4-1.668,13.849,13.849,0,0,1,7.025,1.6,15.347,15.347,0,0,1,4.7,4.252,24.426,24.426,0,0,1,3.2,6.039q1.255,3.387,2.508,7.084,1.506,4.559,3.262,9.178a32.908,32.908,0,0,0,4.579,8.318,22.059,22.059,0,0,0,7.15,6.038,22.93,22.93,0,0,0,10.976,2.341,24.7,24.7,0,0,0,11.48-2.5,24,24,0,0,0,7.965-6.488,26.764,26.764,0,0,0,4.641-9.115,36.481,36.481,0,0,0,1.5-10.317,39.081,39.081,0,0,0-.814-7.906,35.549,35.549,0,0,0-2.446-7.537,30.389,30.389,0,0,0-2.509-4.477,3.318,3.318,0,0,0-4.067-1.132l-4.278,1.869a1.586,1.586,0,0,0-.444,2.635,24.337,24.337,0,0,1,4.2,4.854,22.271,22.271,0,0,1,3.2,12.046,22.983,22.983,0,0,1-1.065,6.795,19,19,0,0,1-3.263,6.24c-1.463,1.853-3.165,4.179-5.3,5.373a18.866,18.866,0,0,1-8.308,2.506c-3.092,0-6.372-1.63-8.422-2.823a17.289,17.289,0,0,1-5.161-5.1,29.005,29.005,0,0,1-3.451-6.8c-.919-2.554-1.727-5.622-2.648-8.421-.92-2.885-1.807-5.022-2.978-7.823a35.674,35.674,0,0,0-4.467-7.5,14.761,14.761,0,0,0-6-4.752,25.8,25.8,0,0,0-21.2.493c-3.093,1.687-5.708,3.115-7.714,5.834a25.688,25.688,0,0,0-4.363,8.65,32.58,32.58,0,0,0-1.209,8.384c-.2,3.97.705,8.435,1.612,17.266Z" transform="translate(-133.951 -178.612)" fill="#2b5de5"/>
      <g id="组_1" data-name="组 1" transform="translate(79.994 65.145)">
        <path id="路径_2" data-name="路径 2" d="M1.055-10.885c.067,2.47,1.772,5.449,6.872,5.449,4.147,0,7.06-2.027,7.06-5.624,0-3.114-2.094-4.416-4.845-5.087l-2.993-.738c-1.7-.389-2.537-1.248-2.537-2.443,0-1.7,1.423-2.7,3.516-2.7,2.376,0,3.57,1.288,3.7,2.845h2.926c-.067-3.422-3.033-5.342-6.59-5.342S1.551-22.6,1.551-19.1c0,2.98,2.121,4.389,4.483,4.939l3.006.752c1.96.47,2.9,1.221,2.9,2.617,0,1.731-1.409,2.845-3.785,2.845-2.59,0-3.986-1.356-4.12-2.939ZM29.615-8.362h-8.4v-5.516h7.919v-2.456H21.214v-5.221h8.4v-2.563H18.18V-5.8H29.615ZM36-5.8V-18.992h.081L44.768-5.8h2.657v-18.32H44.567v13.153h-.094L35.816-24.119H33.132V-5.8Zm18.589,0v-18.32H51.546V-5.8ZM61.062-16.16c0-3.785,1.946-5.718,4.55-5.718s4.536,1.933,4.536,5.718v2.537c0,3.8-1.933,5.6-4.536,5.6s-4.55-1.8-4.55-5.6Zm-3.073,2.537c0,5.181,2.912,8.187,7.61,8.187s7.637-3.006,7.637-8.187v-2.51c0-5.194-2.912-8.348-7.61-8.348-4.671,0-7.637,3.141-7.637,8.348Zm25.635-10.5H76.617V-5.8h3.02v-7.046h3.8L86.723-5.8h3.422l-3.7-7.556A5.211,5.211,0,0,0,89.8-18.482C89.8-21.542,87.851-24.119,83.623-24.119Zm-3.986,8.858v-6.362h3.57c2.053,0,3.463,1.087,3.463,3.248,0,2.013-1.275,3.114-3.543,3.114Z" transform="translate(-0.14 24.521)" fill="#2b5de5"/>
        <path id="路径_3" data-name="路径 3" d="M-43.761-18.388c-.188-3.476-2.818-6.093-7.06-6.093-4.778,0-7.556,3.154-7.556,8.12V-13.8c0,5.127,2.523,8.362,7.6,8.362,4.362,0,7.06-2.859,7.06-6.375v-3.7h-7.127v2.4h4.214v1.436c0,2.094-1.624,3.637-4.107,3.637-3.1,0-4.59-2.2-4.59-5.771v-2.537c0-3.49,1.651-5.53,4.5-5.53a3.8,3.8,0,0,1,4.094,3.49ZM-28.9-8.362h-8.4v-5.516h7.919v-2.456h-7.919v-5.221h8.4v-2.563H-40.339V-5.8H-28.9ZM-22.515-5.8V-18.992h.081L-13.751-5.8h2.657v-18.32h-2.859v13.153h-.094L-22.7-24.119h-2.684V-5.8Zm18.589,0v-18.32H-6.973V-5.8Zm6.939-18.32H-.007v12.173c0,3.839,2.7,6.509,7.194,6.509s7.194-2.671,7.194-6.509V-24.119H11.347v11.757A3.941,3.941,0,0,1,7.186-8.067a3.938,3.938,0,0,1-4.174-4.295ZM17.024-10.885c.067,2.47,1.772,5.449,6.872,5.449,4.147,0,7.06-2.027,7.06-5.624,0-3.114-2.094-4.416-4.845-5.087l-2.993-.738c-1.7-.389-2.537-1.248-2.537-2.443,0-1.7,1.423-2.7,3.516-2.7,2.376,0,3.57,1.288,3.7,2.845h2.926c-.067-3.422-3.033-5.342-6.59-5.342S17.521-22.6,17.521-19.1c0,2.98,2.121,4.389,4.483,4.939l3.006.752c1.96.47,2.9,1.221,2.9,2.617,0,1.731-1.409,2.845-3.785,2.845-2.59,0-3.986-1.356-4.12-2.939Z" transform="translate(58.377 50.407)" fill="#2b5de5"/>
      </g>
    </g>
  </g>
</svg>
